<svg xmlns="http://www.w3.org/2000/svg" width="192" height="192" viewBox="0 0 192 192">
  <rect width="192" height="192" rx="24" fill="#1e40af"/>
  <path d="M96 40c-30.9 0-56 25.1-56 56s25.1 56 56 56 56-25.1 56-56-25.1-56-56-56zm0 100c-24.3 0-44-19.7-44-44s19.7-44 44-44 44 19.7 44 44-19.7 44-44 44z" fill="white"/>
  <path d="M96 64c-17.7 0-32 14.3-32 32s14.3 32 32 32 32-14.3 32-32-14.3-32-32-32zm0 52c-11 0-20-9-20-20s9-20 20-20 20 9 20 20-9 20-20 20z" fill="white"/>
  <circle cx="96" cy="96" r="12" fill="white"/>
  <text x="96" y="168" font-family="Arial, sans-serif" font-size="20" font-weight="bold" fill="white" text-anchor="middle">PARTICIPA</text>
</svg>
